<mxfile host="65bd71144e">
    <diagram id="Xb2BPzHW0jb5XL3cvYcj" name="Page-1">
        <mxGraphModel dx="990" dy="996" grid="0" gridSize="10" guides="1" tooltips="1" connect="1" arrows="1" fold="1" page="0" pageScale="1" pageWidth="827" pageHeight="1169" math="0" shadow="0">
            <root>
                <mxCell id="0"/>
                <mxCell id="1" parent="0"/>
                <mxCell id="65" value="" style="rounded=0;whiteSpace=wrap;html=1;" vertex="1" parent="1">
                    <mxGeometry x="32" y="587" width="950" height="232" as="geometry"/>
                </mxCell>
                <mxCell id="22" value="" style="group" vertex="1" connectable="0" parent="1">
                    <mxGeometry x="103" y="120" width="260" height="298" as="geometry"/>
                </mxCell>
                <mxCell id="23" value="&lt;h1&gt;&lt;br&gt;&lt;/h1&gt;" style="rounded=1;whiteSpace=wrap;html=1;" vertex="1" parent="22">
                    <mxGeometry width="260" height="298" as="geometry"/>
                </mxCell>
                <mxCell id="24" value="&lt;br&gt;&lt;h1 style=&quot;border-color: rgb(0, 0, 0); color: rgb(240, 240, 240); font-family: Helvetica; font-style: normal; font-variant-ligatures: normal; font-variant-caps: normal; letter-spacing: normal; orphans: 2; text-align: center; text-indent: 0px; text-transform: none; widows: 2; word-spacing: 0px; -webkit-text-stroke-width: 0px; background-color: rgb(24, 20, 29); text-decoration-thickness: initial; text-decoration-style: initial; text-decoration-color: initial;&quot;&gt;Json&lt;/h1&gt;" style="text;html=1;strokeColor=none;fillColor=none;align=center;verticalAlign=middle;whiteSpace=wrap;rounded=0;" vertex="1" parent="22">
                    <mxGeometry x="102" y="17.76" width="60" height="28.24" as="geometry"/>
                </mxCell>
                <mxCell id="36" style="edgeStyle=none;curved=1;html=1;fontStyle=1" edge="1" parent="1" source="8" target="23">
                    <mxGeometry relative="1" as="geometry">
                        <mxPoint x="113" y="578" as="targetPoint"/>
                    </mxGeometry>
                </mxCell>
                <mxCell id="37" value="uses" style="edgeLabel;html=1;align=center;verticalAlign=middle;resizable=0;points=[];" vertex="1" connectable="0" parent="36">
                    <mxGeometry x="-0.1482" y="-1" relative="1" as="geometry">
                        <mxPoint x="-9" y="-27" as="offset"/>
                    </mxGeometry>
                </mxCell>
                <mxCell id="64" value="" style="edgeStyle=none;curved=1;html=1;fontStyle=1" edge="1" parent="1" source="8" target="65">
                    <mxGeometry relative="1" as="geometry"/>
                </mxCell>
                <mxCell id="8" value="stress_tester start" style="rounded=1;whiteSpace=wrap;html=1;" vertex="1" parent="1">
                    <mxGeometry x="-209" y="641.5" width="120" height="60" as="geometry"/>
                </mxCell>
                <mxCell id="32" style="edgeStyle=none;curved=1;html=1;fontStyle=1" edge="1" parent="1" source="9" target="27">
                    <mxGeometry relative="1" as="geometry">
                        <Array as="points"/>
                    </mxGeometry>
                </mxCell>
                <mxCell id="57" value="inputs" style="edgeLabel;html=1;align=center;verticalAlign=middle;resizable=0;points=[];" vertex="1" connectable="0" parent="32">
                    <mxGeometry x="0.107" relative="1" as="geometry">
                        <mxPoint x="-15" y="-1" as="offset"/>
                    </mxGeometry>
                </mxCell>
                <mxCell id="33" style="edgeStyle=none;curved=1;html=1;fontStyle=1" edge="1" parent="1" source="9" target="26">
                    <mxGeometry relative="1" as="geometry">
                        <Array as="points"/>
                    </mxGeometry>
                </mxCell>
                <mxCell id="58" value="inputs" style="edgeLabel;html=1;align=center;verticalAlign=middle;resizable=0;points=[];" vertex="1" connectable="0" parent="33">
                    <mxGeometry x="-0.3696" y="-3" relative="1" as="geometry">
                        <mxPoint x="21" y="-6" as="offset"/>
                    </mxGeometry>
                </mxCell>
                <mxCell id="9" value="RNG" style="rounded=1;whiteSpace=wrap;html=1;" vertex="1" parent="1">
                    <mxGeometry x="290" y="651" width="64" height="40" as="geometry"/>
                </mxCell>
                <mxCell id="19" value="stress_tester" style="rounded=1;whiteSpace=wrap;html=1;" vertex="1" parent="1">
                    <mxGeometry x="-170" y="-263" width="120" height="60" as="geometry"/>
                </mxCell>
                <mxCell id="10" value="RNG_settings" style="rounded=1;whiteSpace=wrap;html=1;" vertex="1" parent="1">
                    <mxGeometry x="119" y="193" width="218" height="60" as="geometry"/>
                </mxCell>
                <mxCell id="11" value="brute_solution_file_name" style="rounded=1;whiteSpace=wrap;html=1;" vertex="1" parent="1">
                    <mxGeometry x="119" y="262" width="224" height="60" as="geometry"/>
                </mxCell>
                <mxCell id="15" value="efficient_solution_file_name" style="rounded=1;whiteSpace=wrap;html=1;" vertex="1" parent="1">
                    <mxGeometry x="119" y="334" width="224" height="60" as="geometry"/>
                </mxCell>
                <mxCell id="62" style="edgeStyle=none;curved=1;html=1;fontStyle=1" edge="1" parent="1" source="26" target="29">
                    <mxGeometry relative="1" as="geometry">
                        <Array as="points"/>
                    </mxGeometry>
                </mxCell>
                <mxCell id="26" value="brute force solution" style="rounded=1;whiteSpace=wrap;html=1;" vertex="1" parent="1">
                    <mxGeometry x="495" y="631" width="132" height="32" as="geometry"/>
                </mxCell>
                <mxCell id="63" style="edgeStyle=none;curved=1;html=1;fontStyle=1" edge="1" parent="1" source="27" target="30">
                    <mxGeometry relative="1" as="geometry">
                        <Array as="points"/>
                    </mxGeometry>
                </mxCell>
                <mxCell id="27" value="efficient solution" style="rounded=1;whiteSpace=wrap;html=1;" vertex="1" parent="1">
                    <mxGeometry x="492" y="691" width="132" height="32" as="geometry"/>
                </mxCell>
                <mxCell id="68" style="edgeStyle=none;curved=1;html=1;fontStyle=1" edge="1" parent="1" source="29" target="67">
                    <mxGeometry relative="1" as="geometry"/>
                </mxCell>
                <mxCell id="29" value="efficient output" style="rounded=1;whiteSpace=wrap;html=1;" vertex="1" parent="1">
                    <mxGeometry x="706" y="620" width="131" height="40" as="geometry"/>
                </mxCell>
                <mxCell id="69" style="edgeStyle=none;curved=1;html=1;fontStyle=1" edge="1" parent="1" source="30" target="67">
                    <mxGeometry relative="1" as="geometry"/>
                </mxCell>
                <mxCell id="30" value="brute output" style="rounded=1;whiteSpace=wrap;html=1;" vertex="1" parent="1">
                    <mxGeometry x="710" y="683" width="131" height="40" as="geometry"/>
                </mxCell>
                <mxCell id="42" value="" style="group" vertex="1" connectable="0" parent="1">
                    <mxGeometry x="88" y="-389" width="260" height="298" as="geometry"/>
                </mxCell>
                <mxCell id="43" value="&lt;h1&gt;&lt;br&gt;&lt;/h1&gt;" style="rounded=1;whiteSpace=wrap;html=1;" vertex="1" parent="42">
                    <mxGeometry width="260" height="298" as="geometry"/>
                </mxCell>
                <mxCell id="44" value="&lt;br&gt;&lt;h1 style=&quot;border-color: rgb(0, 0, 0); color: rgb(240, 240, 240); font-family: Helvetica; font-style: normal; font-variant-ligatures: normal; font-variant-caps: normal; letter-spacing: normal; orphans: 2; text-align: center; text-indent: 0px; text-transform: none; widows: 2; word-spacing: 0px; -webkit-text-stroke-width: 0px; background-color: rgb(24, 20, 29); text-decoration-thickness: initial; text-decoration-style: initial; text-decoration-color: initial;&quot;&gt;Json&lt;/h1&gt;" style="text;html=1;strokeColor=none;fillColor=none;align=center;verticalAlign=middle;whiteSpace=wrap;rounded=0;" vertex="1" parent="42">
                    <mxGeometry x="102" y="17.76" width="60" height="28.24" as="geometry"/>
                </mxCell>
                <mxCell id="45" value="RNG_settings" style="rounded=1;whiteSpace=wrap;html=1;" vertex="1" parent="1">
                    <mxGeometry x="104" y="-316" width="218" height="60" as="geometry"/>
                </mxCell>
                <mxCell id="46" value="brute_solution_file_name" style="rounded=1;whiteSpace=wrap;html=1;" vertex="1" parent="1">
                    <mxGeometry x="104" y="-247" width="224" height="60" as="geometry"/>
                </mxCell>
                <mxCell id="47" value="efficient_solution_file_name" style="rounded=1;whiteSpace=wrap;html=1;" vertex="1" parent="1">
                    <mxGeometry x="104" y="-175" width="224" height="60" as="geometry"/>
                </mxCell>
                <mxCell id="48" style="edgeStyle=none;curved=1;html=1;fontStyle=1" edge="1" parent="1" source="19" target="43">
                    <mxGeometry relative="1" as="geometry">
                        <mxPoint x="-158.99650485436916" y="-158.04999999999973" as="sourcePoint"/>
                        <mxPoint x="26.120000000000005" y="-321.9497134670487" as="targetPoint"/>
                    </mxGeometry>
                </mxCell>
                <mxCell id="49" value="Creates" style="edgeLabel;html=1;align=center;verticalAlign=middle;resizable=0;points=[];" vertex="1" connectable="0" parent="48">
                    <mxGeometry x="-0.1482" y="-1" relative="1" as="geometry">
                        <mxPoint x="-9" y="-27" as="offset"/>
                    </mxGeometry>
                </mxCell>
                <mxCell id="71" value="" style="edgeStyle=none;curved=1;html=1;fontStyle=1" edge="1" parent="1" source="59" target="9">
                    <mxGeometry relative="1" as="geometry"/>
                </mxCell>
                <mxCell id="59" value="loops until&lt;br&gt;outputs don't match" style="rounded=1;whiteSpace=wrap;html=1;" vertex="1" parent="1">
                    <mxGeometry x="93.5" y="651.5" width="113" height="40" as="geometry"/>
                </mxCell>
                <mxCell id="66" value="stress tester loop" style="text;html=1;strokeColor=none;fillColor=none;align=center;verticalAlign=middle;whiteSpace=wrap;rounded=0;" vertex="1" parent="1">
                    <mxGeometry x="76" y="604" width="148" height="30" as="geometry"/>
                </mxCell>
                <mxCell id="70" style="edgeStyle=none;curved=1;html=1;fontStyle=1" edge="1" parent="1" source="67" target="59">
                    <mxGeometry relative="1" as="geometry">
                        <Array as="points">
                            <mxPoint x="881" y="904"/>
                        </Array>
                    </mxGeometry>
                </mxCell>
                <mxCell id="67" value="" style="ellipse;whiteSpace=wrap;html=1;" vertex="1" parent="1">
                    <mxGeometry x="908" y="658" width="37" height="33" as="geometry"/>
                </mxCell>
            </root>
        </mxGraphModel>
    </diagram>
</mxfile>